G04 #@! TF.FileFunction,Copper,L1,Top,Signal*
%FSLAX46Y46*%
G04 Gerber Fmt 4.6, Leading zero omitted, Abs format (unit mm)*
G04 Created by KiCad (PCBNEW 4.0.4-stable) date Mon Feb  6 12:25:40 2017*
%MOMM*%
%LPD*%
G01*
G04 APERTURE LIST*
%ADD10C,0.100000*%
%ADD11R,2.000000X1.600000*%
%ADD12R,2.000000X1.700000*%
%ADD13R,1.143000X0.508000*%
%ADD14C,1.998980*%
%ADD15C,2.540000*%
%ADD16C,0.812800*%
%ADD17C,0.406400*%
%ADD18C,0.304800*%
%ADD19C,0.254000*%
G04 APERTURE END LIST*
D10*
D11*
X127730000Y-95250000D03*
X123730000Y-95250000D03*
D12*
X127730000Y-99695000D03*
X123730000Y-99695000D03*
X127730000Y-104140000D03*
X123730000Y-104140000D03*
D13*
X122428000Y-108585000D03*
X122428000Y-109855000D03*
X122428000Y-111125000D03*
X122428000Y-112395000D03*
X122428000Y-113665000D03*
X122428000Y-114935000D03*
X122428000Y-116205000D03*
X128778000Y-116205000D03*
X128778000Y-114935000D03*
X128778000Y-112395000D03*
X128778000Y-111125000D03*
X128778000Y-109855000D03*
X128778000Y-108585000D03*
X128778000Y-113665000D03*
D14*
X118110000Y-92710000D03*
X133350000Y-125730000D03*
D15*
X127508000Y-119888000D03*
X122428000Y-124714000D03*
X127508000Y-124714000D03*
D14*
X118110000Y-113030000D03*
X118110000Y-107950000D03*
D16*
X127730000Y-95250000D02*
X127730000Y-92996000D01*
X127730000Y-92996000D02*
X127762000Y-92964000D01*
X118110000Y-92710000D02*
X120396000Y-92710000D01*
X127730000Y-99695000D02*
X127730000Y-95250000D01*
X127730000Y-104140000D02*
X127730000Y-99695000D01*
D17*
X128778000Y-108585000D02*
X127762000Y-108585000D01*
X127762000Y-108585000D02*
X127730000Y-108553000D01*
X127730000Y-108553000D02*
X127730000Y-104140000D01*
X127635000Y-104775000D02*
X127730000Y-104140000D01*
D16*
X133350000Y-125730000D02*
X130810000Y-125730000D01*
D18*
X124206000Y-109220000D02*
X121539000Y-109220000D01*
X124460000Y-109474000D02*
X124206000Y-109220000D01*
X124460000Y-112395000D02*
X124460000Y-109728000D01*
X124460000Y-109728000D02*
X124460000Y-109474000D01*
X123730000Y-101314000D02*
X123730000Y-99695000D01*
X123317000Y-101727000D02*
X123730000Y-101314000D01*
X122555000Y-101727000D02*
X123317000Y-101727000D01*
X122047000Y-102235000D02*
X122555000Y-101727000D01*
X122047000Y-105410000D02*
X122047000Y-102235000D01*
X122301000Y-105664000D02*
X122047000Y-105410000D01*
X122682000Y-105664000D02*
X122301000Y-105664000D01*
X122936000Y-105918000D02*
X122682000Y-105664000D01*
X122936000Y-107442000D02*
X122936000Y-105918000D01*
X122682000Y-107696000D02*
X122936000Y-107442000D01*
X121539000Y-107696000D02*
X122682000Y-107696000D01*
X121285000Y-107950000D02*
X121539000Y-107696000D01*
X121285000Y-108966000D02*
X121285000Y-107950000D01*
X121539000Y-109220000D02*
X121285000Y-108966000D01*
X124460000Y-112395000D02*
X123825000Y-112395000D01*
X123825000Y-112395000D02*
X122428000Y-112395000D01*
X124460000Y-113030000D02*
X124460000Y-112395000D01*
X124460000Y-113030000D02*
X124460000Y-115570000D01*
X124460000Y-115570000D02*
X125095000Y-116205000D01*
X128778000Y-116205000D02*
X125095000Y-116205000D01*
X123730000Y-104140000D02*
X123730000Y-108585000D01*
X128778000Y-114935000D02*
X126365000Y-114935000D01*
X126365000Y-114935000D02*
X125730000Y-114300000D01*
X125730000Y-114300000D02*
X125730000Y-109220000D01*
X125730000Y-109220000D02*
X125095000Y-108585000D01*
X125095000Y-108585000D02*
X123730000Y-108585000D01*
X123190000Y-108585000D02*
X122428000Y-108585000D01*
X123825000Y-108585000D02*
X123190000Y-108585000D01*
X123730000Y-108585000D02*
X123825000Y-108585000D01*
X123825000Y-104775000D02*
X123730000Y-104140000D01*
X130048000Y-114046000D02*
X130048000Y-119380000D01*
X129667000Y-113665000D02*
X130048000Y-114046000D01*
X128778000Y-113665000D02*
X129667000Y-113665000D01*
X129540000Y-119888000D02*
X127508000Y-119888000D01*
X130048000Y-119380000D02*
X129540000Y-119888000D01*
X122428000Y-113665000D02*
X121031000Y-113665000D01*
X122428000Y-119634000D02*
X122428000Y-124714000D01*
X120396000Y-117602000D02*
X122428000Y-119634000D01*
X120396000Y-114300000D02*
X120396000Y-117602000D01*
X121031000Y-113665000D02*
X120396000Y-114300000D01*
X123444000Y-121920000D02*
X123444000Y-122682000D01*
X123444000Y-119380000D02*
X121412000Y-117348000D01*
X122428000Y-114935000D02*
X121539000Y-114935000D01*
X123444000Y-119634000D02*
X123444000Y-121920000D01*
X121158000Y-117094000D02*
X121412000Y-117348000D01*
X121158000Y-115316000D02*
X121158000Y-117094000D01*
X121539000Y-114935000D02*
X121158000Y-115316000D01*
X123444000Y-119634000D02*
X123444000Y-119380000D01*
X125476000Y-124714000D02*
X127508000Y-124714000D01*
X123444000Y-122682000D02*
X125476000Y-124714000D01*
X121285000Y-111125000D02*
X121031000Y-111125000D01*
X122428000Y-111125000D02*
X121285000Y-111125000D01*
X119888000Y-113030000D02*
X118110000Y-113030000D01*
X120396000Y-112522000D02*
X119888000Y-113030000D01*
X120396000Y-111760000D02*
X120396000Y-112522000D01*
X121031000Y-111125000D02*
X120396000Y-111760000D01*
X122428000Y-109855000D02*
X121031000Y-109855000D01*
X119888000Y-107950000D02*
X118110000Y-107950000D01*
X120396000Y-108458000D02*
X119888000Y-107950000D01*
X120396000Y-109220000D02*
X120396000Y-108458000D01*
X121031000Y-109855000D02*
X120396000Y-109220000D01*
D19*
G36*
X131370000Y-124460000D02*
X131404711Y-124634504D01*
X131503559Y-124782441D01*
X131651496Y-124881289D01*
X131826000Y-124916000D01*
X131908761Y-124916000D01*
X131704599Y-125465582D01*
X131728659Y-126115377D01*
X131906200Y-126544000D01*
X120090000Y-126544000D01*
X120090000Y-118050342D01*
X121894600Y-119854942D01*
X121894600Y-123148012D01*
X121494005Y-123313534D01*
X121029166Y-123777563D01*
X120777287Y-124384155D01*
X120776714Y-125040963D01*
X121027534Y-125647995D01*
X121491563Y-126112834D01*
X122098155Y-126364713D01*
X122754963Y-126365286D01*
X123361995Y-126114466D01*
X123826834Y-125650437D01*
X124078713Y-125043845D01*
X124079286Y-124387037D01*
X123857197Y-123849539D01*
X125098829Y-125091171D01*
X125271877Y-125206797D01*
X125476000Y-125247400D01*
X125942012Y-125247400D01*
X126107534Y-125647995D01*
X126571563Y-126112834D01*
X127178155Y-126364713D01*
X127834963Y-126365286D01*
X128441995Y-126114466D01*
X128906834Y-125650437D01*
X129158713Y-125043845D01*
X129159286Y-124387037D01*
X128908466Y-123780005D01*
X128444437Y-123315166D01*
X127837845Y-123063287D01*
X127181037Y-123062714D01*
X126574005Y-123313534D01*
X126109166Y-123777563D01*
X125941810Y-124180600D01*
X125696942Y-124180600D01*
X123977400Y-122461058D01*
X123977400Y-119380000D01*
X123936797Y-119175877D01*
X123821171Y-119002829D01*
X121912342Y-117094000D01*
X122142250Y-117094000D01*
X122301000Y-116935250D01*
X122301000Y-116332000D01*
X122555000Y-116332000D01*
X122555000Y-116935250D01*
X122713750Y-117094000D01*
X123125810Y-117094000D01*
X123359199Y-116997327D01*
X123537827Y-116818698D01*
X123634500Y-116585309D01*
X123634500Y-116490750D01*
X123475750Y-116332000D01*
X122555000Y-116332000D01*
X122301000Y-116332000D01*
X122281000Y-116332000D01*
X122281000Y-116078000D01*
X122301000Y-116078000D01*
X122301000Y-116058000D01*
X122555000Y-116058000D01*
X122555000Y-116078000D01*
X123475750Y-116078000D01*
X123634500Y-115919250D01*
X123634500Y-115824691D01*
X123537827Y-115591302D01*
X123359199Y-115412673D01*
X123319134Y-115396078D01*
X123357359Y-115340134D01*
X123387964Y-115189000D01*
X123387964Y-114681000D01*
X123361397Y-114539810D01*
X123277954Y-114410135D01*
X123150634Y-114323141D01*
X123037712Y-114300274D01*
X123140690Y-114280897D01*
X123270365Y-114197454D01*
X123357359Y-114070134D01*
X123387964Y-113919000D01*
X123387964Y-113411000D01*
X123361397Y-113269810D01*
X123277954Y-113140135D01*
X123150634Y-113053141D01*
X123037712Y-113030274D01*
X123140690Y-113010897D01*
X123268895Y-112928400D01*
X123926600Y-112928400D01*
X123926600Y-115570000D01*
X123967203Y-115774123D01*
X124082829Y-115947171D01*
X124717827Y-116582168D01*
X124717829Y-116582171D01*
X124890877Y-116697797D01*
X125095000Y-116738401D01*
X125095005Y-116738400D01*
X127940537Y-116738400D01*
X128055366Y-116816859D01*
X128206500Y-116847464D01*
X129349500Y-116847464D01*
X129490690Y-116820897D01*
X129514600Y-116805511D01*
X129514600Y-119159059D01*
X129319058Y-119354600D01*
X129073988Y-119354600D01*
X128908466Y-118954005D01*
X128444437Y-118489166D01*
X127837845Y-118237287D01*
X127181037Y-118236714D01*
X126574005Y-118487534D01*
X126109166Y-118951563D01*
X125857287Y-119558155D01*
X125856714Y-120214963D01*
X126107534Y-120821995D01*
X126571563Y-121286834D01*
X127178155Y-121538713D01*
X127834963Y-121539286D01*
X128441995Y-121288466D01*
X128906834Y-120824437D01*
X129074190Y-120421400D01*
X129540000Y-120421400D01*
X129744123Y-120380797D01*
X129917171Y-120265171D01*
X130425168Y-119757173D01*
X130425171Y-119757171D01*
X130507471Y-119634000D01*
X130540797Y-119584124D01*
X130581400Y-119380000D01*
X130581400Y-114046000D01*
X130540797Y-113841877D01*
X130540797Y-113841876D01*
X130490499Y-113766600D01*
X130425171Y-113668829D01*
X130425168Y-113668827D01*
X130044171Y-113287829D01*
X129871123Y-113172203D01*
X129748679Y-113147847D01*
X129887827Y-113008698D01*
X129984500Y-112775309D01*
X129984500Y-112680750D01*
X129825750Y-112522000D01*
X128905000Y-112522000D01*
X128905000Y-112542000D01*
X128651000Y-112542000D01*
X128651000Y-112522000D01*
X127730250Y-112522000D01*
X127571500Y-112680750D01*
X127571500Y-112775309D01*
X127668173Y-113008698D01*
X127846801Y-113187327D01*
X127886866Y-113203922D01*
X127848641Y-113259866D01*
X127818036Y-113411000D01*
X127818036Y-113919000D01*
X127844603Y-114060190D01*
X127928046Y-114189865D01*
X128055366Y-114276859D01*
X128168288Y-114299726D01*
X128065310Y-114319103D01*
X127937105Y-114401600D01*
X126585941Y-114401600D01*
X126263400Y-114079058D01*
X126263400Y-111410750D01*
X127571500Y-111410750D01*
X127571500Y-111505309D01*
X127668173Y-111738698D01*
X127689475Y-111760000D01*
X127668173Y-111781302D01*
X127571500Y-112014691D01*
X127571500Y-112109250D01*
X127730250Y-112268000D01*
X128651000Y-112268000D01*
X128651000Y-111252000D01*
X128905000Y-111252000D01*
X128905000Y-112268000D01*
X129825750Y-112268000D01*
X129984500Y-112109250D01*
X129984500Y-112014691D01*
X129887827Y-111781302D01*
X129866525Y-111760000D01*
X129887827Y-111738698D01*
X129984500Y-111505309D01*
X129984500Y-111410750D01*
X129825750Y-111252000D01*
X128905000Y-111252000D01*
X128651000Y-111252000D01*
X127730250Y-111252000D01*
X127571500Y-111410750D01*
X126263400Y-111410750D01*
X126263400Y-109220005D01*
X126263401Y-109220000D01*
X126222797Y-109015877D01*
X126222796Y-109015876D01*
X126107171Y-108842829D01*
X126107168Y-108842827D01*
X125472171Y-108207829D01*
X125299123Y-108092203D01*
X125095000Y-108051600D01*
X124263400Y-108051600D01*
X124263400Y-105378464D01*
X124730000Y-105378464D01*
X124871190Y-105351897D01*
X125000865Y-105268454D01*
X125087859Y-105141134D01*
X125118464Y-104990000D01*
X125118464Y-103290000D01*
X125091897Y-103148810D01*
X125008454Y-103019135D01*
X124881134Y-102932141D01*
X124730000Y-102901536D01*
X122730000Y-102901536D01*
X122588810Y-102928103D01*
X122580400Y-102933515D01*
X122580400Y-102455942D01*
X122775941Y-102260400D01*
X123317000Y-102260400D01*
X123521123Y-102219797D01*
X123694171Y-102104171D01*
X124107171Y-101691171D01*
X124222797Y-101518123D01*
X124263400Y-101314000D01*
X124263400Y-100933464D01*
X124730000Y-100933464D01*
X124871190Y-100906897D01*
X125000865Y-100823454D01*
X125087859Y-100696134D01*
X125118464Y-100545000D01*
X125118464Y-98845000D01*
X125091897Y-98703810D01*
X125008454Y-98574135D01*
X124881134Y-98487141D01*
X124730000Y-98456536D01*
X122730000Y-98456536D01*
X122588810Y-98483103D01*
X122459135Y-98566546D01*
X122372141Y-98693866D01*
X122341536Y-98845000D01*
X122341536Y-100545000D01*
X122368103Y-100686190D01*
X122451546Y-100815865D01*
X122578866Y-100902859D01*
X122730000Y-100933464D01*
X123196600Y-100933464D01*
X123196600Y-101093058D01*
X123096058Y-101193600D01*
X122555000Y-101193600D01*
X122350876Y-101234203D01*
X122281563Y-101280516D01*
X122177829Y-101349829D01*
X122177827Y-101349832D01*
X121669829Y-101857829D01*
X121554203Y-102030877D01*
X121513600Y-102235000D01*
X121513600Y-105410000D01*
X121554203Y-105614123D01*
X121669829Y-105787171D01*
X121923829Y-106041171D01*
X122096876Y-106156797D01*
X122301000Y-106197400D01*
X122402600Y-106197400D01*
X122402600Y-107162600D01*
X121539000Y-107162600D01*
X121334876Y-107203203D01*
X121161829Y-107318829D01*
X120907829Y-107572829D01*
X120792203Y-107745877D01*
X120751600Y-107950000D01*
X120751600Y-108059259D01*
X120265171Y-107572829D01*
X120092123Y-107457203D01*
X119888000Y-107416600D01*
X119761000Y-107416600D01*
X119761000Y-107110738D01*
X119808504Y-107101289D01*
X119956441Y-107002441D01*
X120055289Y-106854504D01*
X120090000Y-106680000D01*
X120090000Y-95535750D01*
X122095000Y-95535750D01*
X122095000Y-96176310D01*
X122191673Y-96409699D01*
X122370302Y-96588327D01*
X122603691Y-96685000D01*
X123444250Y-96685000D01*
X123603000Y-96526250D01*
X123603000Y-95377000D01*
X123857000Y-95377000D01*
X123857000Y-96526250D01*
X124015750Y-96685000D01*
X124856309Y-96685000D01*
X125089698Y-96588327D01*
X125268327Y-96409699D01*
X125365000Y-96176310D01*
X125365000Y-95535750D01*
X125206250Y-95377000D01*
X123857000Y-95377000D01*
X123603000Y-95377000D01*
X122253750Y-95377000D01*
X122095000Y-95535750D01*
X120090000Y-95535750D01*
X120090000Y-94615000D01*
X122047000Y-94615000D01*
X122047000Y-94742000D01*
X122057006Y-94791410D01*
X122085447Y-94833035D01*
X122095000Y-94839182D01*
X122095000Y-94964250D01*
X122253750Y-95123000D01*
X123603000Y-95123000D01*
X123603000Y-95103000D01*
X123857000Y-95103000D01*
X123857000Y-95123000D01*
X125206250Y-95123000D01*
X125365000Y-94964250D01*
X125365000Y-94869000D01*
X126341536Y-94869000D01*
X126341536Y-96050000D01*
X126368103Y-96191190D01*
X126451546Y-96320865D01*
X126578866Y-96407859D01*
X126730000Y-96438464D01*
X126942600Y-96438464D01*
X126942600Y-98456536D01*
X126730000Y-98456536D01*
X126588810Y-98483103D01*
X126459135Y-98566546D01*
X126372141Y-98693866D01*
X126341536Y-98845000D01*
X126341536Y-100545000D01*
X126368103Y-100686190D01*
X126451546Y-100815865D01*
X126578866Y-100902859D01*
X126730000Y-100933464D01*
X126942600Y-100933464D01*
X126942600Y-102901536D01*
X126730000Y-102901536D01*
X126588810Y-102928103D01*
X126459135Y-103011546D01*
X126372141Y-103138866D01*
X126341536Y-103290000D01*
X126341536Y-104990000D01*
X126368103Y-105131190D01*
X126451546Y-105260865D01*
X126578866Y-105347859D01*
X126730000Y-105378464D01*
X127145800Y-105378464D01*
X127145800Y-108553000D01*
X127190270Y-108776564D01*
X127271116Y-108897559D01*
X127316908Y-108966092D01*
X127348908Y-108998092D01*
X127538436Y-109124730D01*
X127762000Y-109169200D01*
X128014886Y-109169200D01*
X128055366Y-109196859D01*
X128168288Y-109219726D01*
X128065310Y-109239103D01*
X127935635Y-109322546D01*
X127848641Y-109449866D01*
X127818036Y-109601000D01*
X127818036Y-110109000D01*
X127844603Y-110250190D01*
X127886972Y-110316034D01*
X127846801Y-110332673D01*
X127668173Y-110511302D01*
X127571500Y-110744691D01*
X127571500Y-110839250D01*
X127730250Y-110998000D01*
X128651000Y-110998000D01*
X128651000Y-110978000D01*
X128905000Y-110978000D01*
X128905000Y-110998000D01*
X129825750Y-110998000D01*
X129984500Y-110839250D01*
X129984500Y-110744691D01*
X129887827Y-110511302D01*
X129709199Y-110332673D01*
X129669134Y-110316078D01*
X129707359Y-110260134D01*
X129737964Y-110109000D01*
X129737964Y-109601000D01*
X129711397Y-109459810D01*
X129627954Y-109330135D01*
X129500634Y-109243141D01*
X129387712Y-109220274D01*
X129490690Y-109200897D01*
X129620365Y-109117454D01*
X129707359Y-108990134D01*
X129737964Y-108839000D01*
X129737964Y-108331000D01*
X129711397Y-108189810D01*
X129627954Y-108060135D01*
X129500634Y-107973141D01*
X129349500Y-107942536D01*
X128314200Y-107942536D01*
X128314200Y-105378464D01*
X128730000Y-105378464D01*
X128871190Y-105351897D01*
X129000865Y-105268454D01*
X129087859Y-105141134D01*
X129118464Y-104990000D01*
X129118464Y-103290000D01*
X129091897Y-103148810D01*
X129008454Y-103019135D01*
X128881134Y-102932141D01*
X128730000Y-102901536D01*
X128517400Y-102901536D01*
X128517400Y-100933464D01*
X128730000Y-100933464D01*
X128871190Y-100906897D01*
X129000865Y-100823454D01*
X129087859Y-100696134D01*
X129118464Y-100545000D01*
X129118464Y-98845000D01*
X129091897Y-98703810D01*
X129008454Y-98574135D01*
X128881134Y-98487141D01*
X128730000Y-98456536D01*
X128517400Y-98456536D01*
X128517400Y-96438464D01*
X128730000Y-96438464D01*
X128871190Y-96411897D01*
X129000865Y-96328454D01*
X129087859Y-96201134D01*
X129118464Y-96050000D01*
X129118464Y-94869000D01*
X129286000Y-94869000D01*
X129335410Y-94858994D01*
X129377035Y-94830553D01*
X129404315Y-94788159D01*
X129413000Y-94742000D01*
X129413000Y-91896000D01*
X131370000Y-91896000D01*
X131370000Y-124460000D01*
X131370000Y-124460000D01*
G37*
X131370000Y-124460000D02*
X131404711Y-124634504D01*
X131503559Y-124782441D01*
X131651496Y-124881289D01*
X131826000Y-124916000D01*
X131908761Y-124916000D01*
X131704599Y-125465582D01*
X131728659Y-126115377D01*
X131906200Y-126544000D01*
X120090000Y-126544000D01*
X120090000Y-118050342D01*
X121894600Y-119854942D01*
X121894600Y-123148012D01*
X121494005Y-123313534D01*
X121029166Y-123777563D01*
X120777287Y-124384155D01*
X120776714Y-125040963D01*
X121027534Y-125647995D01*
X121491563Y-126112834D01*
X122098155Y-126364713D01*
X122754963Y-126365286D01*
X123361995Y-126114466D01*
X123826834Y-125650437D01*
X124078713Y-125043845D01*
X124079286Y-124387037D01*
X123857197Y-123849539D01*
X125098829Y-125091171D01*
X125271877Y-125206797D01*
X125476000Y-125247400D01*
X125942012Y-125247400D01*
X126107534Y-125647995D01*
X126571563Y-126112834D01*
X127178155Y-126364713D01*
X127834963Y-126365286D01*
X128441995Y-126114466D01*
X128906834Y-125650437D01*
X129158713Y-125043845D01*
X129159286Y-124387037D01*
X128908466Y-123780005D01*
X128444437Y-123315166D01*
X127837845Y-123063287D01*
X127181037Y-123062714D01*
X126574005Y-123313534D01*
X126109166Y-123777563D01*
X125941810Y-124180600D01*
X125696942Y-124180600D01*
X123977400Y-122461058D01*
X123977400Y-119380000D01*
X123936797Y-119175877D01*
X123821171Y-119002829D01*
X121912342Y-117094000D01*
X122142250Y-117094000D01*
X122301000Y-116935250D01*
X122301000Y-116332000D01*
X122555000Y-116332000D01*
X122555000Y-116935250D01*
X122713750Y-117094000D01*
X123125810Y-117094000D01*
X123359199Y-116997327D01*
X123537827Y-116818698D01*
X123634500Y-116585309D01*
X123634500Y-116490750D01*
X123475750Y-116332000D01*
X122555000Y-116332000D01*
X122301000Y-116332000D01*
X122281000Y-116332000D01*
X122281000Y-116078000D01*
X122301000Y-116078000D01*
X122301000Y-116058000D01*
X122555000Y-116058000D01*
X122555000Y-116078000D01*
X123475750Y-116078000D01*
X123634500Y-115919250D01*
X123634500Y-115824691D01*
X123537827Y-115591302D01*
X123359199Y-115412673D01*
X123319134Y-115396078D01*
X123357359Y-115340134D01*
X123387964Y-115189000D01*
X123387964Y-114681000D01*
X123361397Y-114539810D01*
X123277954Y-114410135D01*
X123150634Y-114323141D01*
X123037712Y-114300274D01*
X123140690Y-114280897D01*
X123270365Y-114197454D01*
X123357359Y-114070134D01*
X123387964Y-113919000D01*
X123387964Y-113411000D01*
X123361397Y-113269810D01*
X123277954Y-113140135D01*
X123150634Y-113053141D01*
X123037712Y-113030274D01*
X123140690Y-113010897D01*
X123268895Y-112928400D01*
X123926600Y-112928400D01*
X123926600Y-115570000D01*
X123967203Y-115774123D01*
X124082829Y-115947171D01*
X124717827Y-116582168D01*
X124717829Y-116582171D01*
X124890877Y-116697797D01*
X125095000Y-116738401D01*
X125095005Y-116738400D01*
X127940537Y-116738400D01*
X128055366Y-116816859D01*
X128206500Y-116847464D01*
X129349500Y-116847464D01*
X129490690Y-116820897D01*
X129514600Y-116805511D01*
X129514600Y-119159059D01*
X129319058Y-119354600D01*
X129073988Y-119354600D01*
X128908466Y-118954005D01*
X128444437Y-118489166D01*
X127837845Y-118237287D01*
X127181037Y-118236714D01*
X126574005Y-118487534D01*
X126109166Y-118951563D01*
X125857287Y-119558155D01*
X125856714Y-120214963D01*
X126107534Y-120821995D01*
X126571563Y-121286834D01*
X127178155Y-121538713D01*
X127834963Y-121539286D01*
X128441995Y-121288466D01*
X128906834Y-120824437D01*
X129074190Y-120421400D01*
X129540000Y-120421400D01*
X129744123Y-120380797D01*
X129917171Y-120265171D01*
X130425168Y-119757173D01*
X130425171Y-119757171D01*
X130507471Y-119634000D01*
X130540797Y-119584124D01*
X130581400Y-119380000D01*
X130581400Y-114046000D01*
X130540797Y-113841877D01*
X130540797Y-113841876D01*
X130490499Y-113766600D01*
X130425171Y-113668829D01*
X130425168Y-113668827D01*
X130044171Y-113287829D01*
X129871123Y-113172203D01*
X129748679Y-113147847D01*
X129887827Y-113008698D01*
X129984500Y-112775309D01*
X129984500Y-112680750D01*
X129825750Y-112522000D01*
X128905000Y-112522000D01*
X128905000Y-112542000D01*
X128651000Y-112542000D01*
X128651000Y-112522000D01*
X127730250Y-112522000D01*
X127571500Y-112680750D01*
X127571500Y-112775309D01*
X127668173Y-113008698D01*
X127846801Y-113187327D01*
X127886866Y-113203922D01*
X127848641Y-113259866D01*
X127818036Y-113411000D01*
X127818036Y-113919000D01*
X127844603Y-114060190D01*
X127928046Y-114189865D01*
X128055366Y-114276859D01*
X128168288Y-114299726D01*
X128065310Y-114319103D01*
X127937105Y-114401600D01*
X126585941Y-114401600D01*
X126263400Y-114079058D01*
X126263400Y-111410750D01*
X127571500Y-111410750D01*
X127571500Y-111505309D01*
X127668173Y-111738698D01*
X127689475Y-111760000D01*
X127668173Y-111781302D01*
X127571500Y-112014691D01*
X127571500Y-112109250D01*
X127730250Y-112268000D01*
X128651000Y-112268000D01*
X128651000Y-111252000D01*
X128905000Y-111252000D01*
X128905000Y-112268000D01*
X129825750Y-112268000D01*
X129984500Y-112109250D01*
X129984500Y-112014691D01*
X129887827Y-111781302D01*
X129866525Y-111760000D01*
X129887827Y-111738698D01*
X129984500Y-111505309D01*
X129984500Y-111410750D01*
X129825750Y-111252000D01*
X128905000Y-111252000D01*
X128651000Y-111252000D01*
X127730250Y-111252000D01*
X127571500Y-111410750D01*
X126263400Y-111410750D01*
X126263400Y-109220005D01*
X126263401Y-109220000D01*
X126222797Y-109015877D01*
X126222796Y-109015876D01*
X126107171Y-108842829D01*
X126107168Y-108842827D01*
X125472171Y-108207829D01*
X125299123Y-108092203D01*
X125095000Y-108051600D01*
X124263400Y-108051600D01*
X124263400Y-105378464D01*
X124730000Y-105378464D01*
X124871190Y-105351897D01*
X125000865Y-105268454D01*
X125087859Y-105141134D01*
X125118464Y-104990000D01*
X125118464Y-103290000D01*
X125091897Y-103148810D01*
X125008454Y-103019135D01*
X124881134Y-102932141D01*
X124730000Y-102901536D01*
X122730000Y-102901536D01*
X122588810Y-102928103D01*
X122580400Y-102933515D01*
X122580400Y-102455942D01*
X122775941Y-102260400D01*
X123317000Y-102260400D01*
X123521123Y-102219797D01*
X123694171Y-102104171D01*
X124107171Y-101691171D01*
X124222797Y-101518123D01*
X124263400Y-101314000D01*
X124263400Y-100933464D01*
X124730000Y-100933464D01*
X124871190Y-100906897D01*
X125000865Y-100823454D01*
X125087859Y-100696134D01*
X125118464Y-100545000D01*
X125118464Y-98845000D01*
X125091897Y-98703810D01*
X125008454Y-98574135D01*
X124881134Y-98487141D01*
X124730000Y-98456536D01*
X122730000Y-98456536D01*
X122588810Y-98483103D01*
X122459135Y-98566546D01*
X122372141Y-98693866D01*
X122341536Y-98845000D01*
X122341536Y-100545000D01*
X122368103Y-100686190D01*
X122451546Y-100815865D01*
X122578866Y-100902859D01*
X122730000Y-100933464D01*
X123196600Y-100933464D01*
X123196600Y-101093058D01*
X123096058Y-101193600D01*
X122555000Y-101193600D01*
X122350876Y-101234203D01*
X122281563Y-101280516D01*
X122177829Y-101349829D01*
X122177827Y-101349832D01*
X121669829Y-101857829D01*
X121554203Y-102030877D01*
X121513600Y-102235000D01*
X121513600Y-105410000D01*
X121554203Y-105614123D01*
X121669829Y-105787171D01*
X121923829Y-106041171D01*
X122096876Y-106156797D01*
X122301000Y-106197400D01*
X122402600Y-106197400D01*
X122402600Y-107162600D01*
X121539000Y-107162600D01*
X121334876Y-107203203D01*
X121161829Y-107318829D01*
X120907829Y-107572829D01*
X120792203Y-107745877D01*
X120751600Y-107950000D01*
X120751600Y-108059259D01*
X120265171Y-107572829D01*
X120092123Y-107457203D01*
X119888000Y-107416600D01*
X119761000Y-107416600D01*
X119761000Y-107110738D01*
X119808504Y-107101289D01*
X119956441Y-107002441D01*
X120055289Y-106854504D01*
X120090000Y-106680000D01*
X120090000Y-95535750D01*
X122095000Y-95535750D01*
X122095000Y-96176310D01*
X122191673Y-96409699D01*
X122370302Y-96588327D01*
X122603691Y-96685000D01*
X123444250Y-96685000D01*
X123603000Y-96526250D01*
X123603000Y-95377000D01*
X123857000Y-95377000D01*
X123857000Y-96526250D01*
X124015750Y-96685000D01*
X124856309Y-96685000D01*
X125089698Y-96588327D01*
X125268327Y-96409699D01*
X125365000Y-96176310D01*
X125365000Y-95535750D01*
X125206250Y-95377000D01*
X123857000Y-95377000D01*
X123603000Y-95377000D01*
X122253750Y-95377000D01*
X122095000Y-95535750D01*
X120090000Y-95535750D01*
X120090000Y-94615000D01*
X122047000Y-94615000D01*
X122047000Y-94742000D01*
X122057006Y-94791410D01*
X122085447Y-94833035D01*
X122095000Y-94839182D01*
X122095000Y-94964250D01*
X122253750Y-95123000D01*
X123603000Y-95123000D01*
X123603000Y-95103000D01*
X123857000Y-95103000D01*
X123857000Y-95123000D01*
X125206250Y-95123000D01*
X125365000Y-94964250D01*
X125365000Y-94869000D01*
X126341536Y-94869000D01*
X126341536Y-96050000D01*
X126368103Y-96191190D01*
X126451546Y-96320865D01*
X126578866Y-96407859D01*
X126730000Y-96438464D01*
X126942600Y-96438464D01*
X126942600Y-98456536D01*
X126730000Y-98456536D01*
X126588810Y-98483103D01*
X126459135Y-98566546D01*
X126372141Y-98693866D01*
X126341536Y-98845000D01*
X126341536Y-100545000D01*
X126368103Y-100686190D01*
X126451546Y-100815865D01*
X126578866Y-100902859D01*
X126730000Y-100933464D01*
X126942600Y-100933464D01*
X126942600Y-102901536D01*
X126730000Y-102901536D01*
X126588810Y-102928103D01*
X126459135Y-103011546D01*
X126372141Y-103138866D01*
X126341536Y-103290000D01*
X126341536Y-104990000D01*
X126368103Y-105131190D01*
X126451546Y-105260865D01*
X126578866Y-105347859D01*
X126730000Y-105378464D01*
X127145800Y-105378464D01*
X127145800Y-108553000D01*
X127190270Y-108776564D01*
X127271116Y-108897559D01*
X127316908Y-108966092D01*
X127348908Y-108998092D01*
X127538436Y-109124730D01*
X127762000Y-109169200D01*
X128014886Y-109169200D01*
X128055366Y-109196859D01*
X128168288Y-109219726D01*
X128065310Y-109239103D01*
X127935635Y-109322546D01*
X127848641Y-109449866D01*
X127818036Y-109601000D01*
X127818036Y-110109000D01*
X127844603Y-110250190D01*
X127886972Y-110316034D01*
X127846801Y-110332673D01*
X127668173Y-110511302D01*
X127571500Y-110744691D01*
X127571500Y-110839250D01*
X127730250Y-110998000D01*
X128651000Y-110998000D01*
X128651000Y-110978000D01*
X128905000Y-110978000D01*
X128905000Y-110998000D01*
X129825750Y-110998000D01*
X129984500Y-110839250D01*
X129984500Y-110744691D01*
X129887827Y-110511302D01*
X129709199Y-110332673D01*
X129669134Y-110316078D01*
X129707359Y-110260134D01*
X129737964Y-110109000D01*
X129737964Y-109601000D01*
X129711397Y-109459810D01*
X129627954Y-109330135D01*
X129500634Y-109243141D01*
X129387712Y-109220274D01*
X129490690Y-109200897D01*
X129620365Y-109117454D01*
X129707359Y-108990134D01*
X129737964Y-108839000D01*
X129737964Y-108331000D01*
X129711397Y-108189810D01*
X129627954Y-108060135D01*
X129500634Y-107973141D01*
X129349500Y-107942536D01*
X128314200Y-107942536D01*
X128314200Y-105378464D01*
X128730000Y-105378464D01*
X128871190Y-105351897D01*
X129000865Y-105268454D01*
X129087859Y-105141134D01*
X129118464Y-104990000D01*
X129118464Y-103290000D01*
X129091897Y-103148810D01*
X129008454Y-103019135D01*
X128881134Y-102932141D01*
X128730000Y-102901536D01*
X128517400Y-102901536D01*
X128517400Y-100933464D01*
X128730000Y-100933464D01*
X128871190Y-100906897D01*
X129000865Y-100823454D01*
X129087859Y-100696134D01*
X129118464Y-100545000D01*
X129118464Y-98845000D01*
X129091897Y-98703810D01*
X129008454Y-98574135D01*
X128881134Y-98487141D01*
X128730000Y-98456536D01*
X128517400Y-98456536D01*
X128517400Y-96438464D01*
X128730000Y-96438464D01*
X128871190Y-96411897D01*
X129000865Y-96328454D01*
X129087859Y-96201134D01*
X129118464Y-96050000D01*
X129118464Y-94869000D01*
X129286000Y-94869000D01*
X129335410Y-94858994D01*
X129377035Y-94830553D01*
X129404315Y-94788159D01*
X129413000Y-94742000D01*
X129413000Y-91896000D01*
X131370000Y-91896000D01*
X131370000Y-124460000D01*
G36*
X133543748Y-125715858D02*
X133529605Y-125730000D01*
X133543748Y-125744142D01*
X133364142Y-125923748D01*
X133350000Y-125909605D01*
X133335858Y-125923748D01*
X133156252Y-125744142D01*
X133170395Y-125730000D01*
X133156252Y-125715858D01*
X133335858Y-125536252D01*
X133350000Y-125550395D01*
X133364142Y-125536252D01*
X133543748Y-125715858D01*
X133543748Y-125715858D01*
G37*
X133543748Y-125715858D02*
X133529605Y-125730000D01*
X133543748Y-125744142D01*
X133364142Y-125923748D01*
X133350000Y-125909605D01*
X133335858Y-125923748D01*
X133156252Y-125744142D01*
X133170395Y-125730000D01*
X133156252Y-125715858D01*
X133335858Y-125536252D01*
X133350000Y-125550395D01*
X133364142Y-125536252D01*
X133543748Y-125715858D01*
G36*
X128651000Y-93815000D02*
X128015750Y-93815000D01*
X127977750Y-93853000D01*
X127482250Y-93853000D01*
X127444250Y-93815000D01*
X126603691Y-93815000D01*
X126511951Y-93853000D01*
X120064738Y-93853000D01*
X120055289Y-93805496D01*
X119956441Y-93657559D01*
X119808504Y-93558711D01*
X119761000Y-93549262D01*
X119761000Y-91896000D01*
X128651000Y-91896000D01*
X128651000Y-93815000D01*
X128651000Y-93815000D01*
G37*
X128651000Y-93815000D02*
X128015750Y-93815000D01*
X127977750Y-93853000D01*
X127482250Y-93853000D01*
X127444250Y-93815000D01*
X126603691Y-93815000D01*
X126511951Y-93853000D01*
X120064738Y-93853000D01*
X120055289Y-93805496D01*
X119956441Y-93657559D01*
X119808504Y-93558711D01*
X119761000Y-93549262D01*
X119761000Y-91896000D01*
X128651000Y-91896000D01*
X128651000Y-93815000D01*
M02*
