G04 #@! TF.FileFunction,Profile,NP*
%FSLAX46Y46*%
G04 Gerber Fmt 4.6, Leading zero omitted, Abs format (unit mm)*
G04 Created by KiCad (PCBNEW 4.0.4-stable) date Mon Feb  6 12:25:40 2017*
%MOMM*%
%LPD*%
G01*
G04 APERTURE LIST*
%ADD10C,0.100000*%
%ADD11C,0.150000*%
G04 APERTURE END LIST*
D10*
D11*
X119634000Y-93980000D02*
X119380000Y-93980000D01*
X119634000Y-106680000D02*
X119126000Y-106680000D01*
X119634000Y-109220000D02*
X119380000Y-109220000D01*
X119634000Y-111760000D02*
X119380000Y-111760000D01*
X119634000Y-114300000D02*
X119380000Y-114300000D01*
X134620000Y-127000000D02*
X119634000Y-127000000D01*
X134620000Y-127000000D02*
X134620000Y-124460000D01*
X119634000Y-114300000D02*
X119634000Y-127000000D01*
X116840000Y-114300000D02*
X119380000Y-114300000D01*
X116840000Y-111760000D02*
X116840000Y-114300000D01*
X119380000Y-111760000D02*
X116840000Y-111760000D01*
X119634000Y-109220000D02*
X119634000Y-111760000D01*
X116840000Y-109220000D02*
X119380000Y-109220000D01*
X116840000Y-106680000D02*
X116840000Y-109220000D01*
X119380000Y-106680000D02*
X116840000Y-106680000D01*
X119634000Y-93980000D02*
X119634000Y-106680000D01*
X116840000Y-93980000D02*
X119380000Y-93980000D01*
X116840000Y-91440000D02*
X116840000Y-93980000D01*
X131826000Y-91440000D02*
X116840000Y-91440000D01*
X131826000Y-124460000D02*
X131826000Y-91440000D01*
X134620000Y-124460000D02*
X131826000Y-124460000D01*
M02*
