G04 #@! TF.FileFunction,Soldermask,Top*
%FSLAX46Y46*%
G04 Gerber Fmt 4.6, Leading zero omitted, Abs format (unit mm)*
G04 Created by KiCad (PCBNEW 4.0.4-stable) date Mon Feb  6 12:29:51 2017*
%MOMM*%
%LPD*%
G01*
G04 APERTURE LIST*
%ADD10C,0.100000*%
%ADD11C,0.177800*%
%ADD12R,2.254000X1.854000*%
%ADD13R,2.254000X1.954000*%
%ADD14R,1.397000X0.762000*%
%ADD15C,2.252980*%
%ADD16C,2.794000*%
G04 APERTURE END LIST*
D10*
D11*
X121460381Y-120129905D02*
X121460381Y-120710476D01*
X120444381Y-120420191D02*
X121460381Y-120420191D01*
X120444381Y-121049143D02*
X121460381Y-121049143D01*
X121460381Y-121436190D01*
X121412000Y-121532952D01*
X121363619Y-121581333D01*
X121266857Y-121629714D01*
X121121714Y-121629714D01*
X121024952Y-121581333D01*
X120976571Y-121532952D01*
X120928190Y-121436190D01*
X120928190Y-121049143D01*
X121363619Y-122016762D02*
X121412000Y-122065143D01*
X121460381Y-122161905D01*
X121460381Y-122403809D01*
X121412000Y-122500571D01*
X121363619Y-122548952D01*
X121266857Y-122597333D01*
X121170095Y-122597333D01*
X121024952Y-122548952D01*
X120444381Y-121968381D01*
X120444381Y-122597333D01*
X130350381Y-123431905D02*
X130350381Y-124012476D01*
X129334381Y-123722191D02*
X130350381Y-123722191D01*
X129334381Y-124351143D02*
X130350381Y-124351143D01*
X130350381Y-124738190D01*
X130302000Y-124834952D01*
X130253619Y-124883333D01*
X130156857Y-124931714D01*
X130011714Y-124931714D01*
X129914952Y-124883333D01*
X129866571Y-124834952D01*
X129818190Y-124738190D01*
X129818190Y-124351143D01*
X130350381Y-125270381D02*
X130350381Y-125899333D01*
X129963333Y-125560667D01*
X129963333Y-125705809D01*
X129914952Y-125802571D01*
X129866571Y-125850952D01*
X129769810Y-125899333D01*
X129527905Y-125899333D01*
X129431143Y-125850952D01*
X129382762Y-125802571D01*
X129334381Y-125705809D01*
X129334381Y-125415524D01*
X129382762Y-125318762D01*
X129431143Y-125270381D01*
X125524381Y-118605905D02*
X125524381Y-119186476D01*
X124508381Y-118896191D02*
X125524381Y-118896191D01*
X124508381Y-119525143D02*
X125524381Y-119525143D01*
X125524381Y-119912190D01*
X125476000Y-120008952D01*
X125427619Y-120057333D01*
X125330857Y-120105714D01*
X125185714Y-120105714D01*
X125088952Y-120057333D01*
X125040571Y-120008952D01*
X124992190Y-119912190D01*
X124992190Y-119525143D01*
X124508381Y-121073333D02*
X124508381Y-120492762D01*
X124508381Y-120783048D02*
X125524381Y-120783048D01*
X125379238Y-120686286D01*
X125282476Y-120589524D01*
X125234095Y-120492762D01*
X125560667Y-98249619D02*
X125222001Y-97765810D01*
X124980096Y-98249619D02*
X124980096Y-97233619D01*
X125367143Y-97233619D01*
X125463905Y-97282000D01*
X125512286Y-97330381D01*
X125560667Y-97427143D01*
X125560667Y-97572286D01*
X125512286Y-97669048D01*
X125463905Y-97717429D01*
X125367143Y-97765810D01*
X124980096Y-97765810D01*
X126528286Y-98249619D02*
X125947715Y-98249619D01*
X126238001Y-98249619D02*
X126238001Y-97233619D01*
X126141239Y-97378762D01*
X126044477Y-97475524D01*
X125947715Y-97523905D01*
X127417286Y-109746144D02*
X127417286Y-110254144D01*
X126655286Y-109927573D01*
X127163286Y-110871001D02*
X126655286Y-110871001D01*
X127453571Y-110689572D02*
X126909286Y-110508144D01*
X126909286Y-110979858D01*
X126655286Y-111633001D02*
X126655286Y-111270144D01*
X127417286Y-111270144D01*
X126691571Y-111850715D02*
X126655286Y-111959572D01*
X126655286Y-112141001D01*
X126691571Y-112213572D01*
X126727857Y-112249858D01*
X126800429Y-112286143D01*
X126873000Y-112286143D01*
X126945571Y-112249858D01*
X126981857Y-112213572D01*
X127018143Y-112141001D01*
X127054429Y-111995858D01*
X127090714Y-111923286D01*
X127127000Y-111887001D01*
X127199571Y-111850715D01*
X127272143Y-111850715D01*
X127344714Y-111887001D01*
X127381000Y-111923286D01*
X127417286Y-111995858D01*
X127417286Y-112177286D01*
X127381000Y-112286143D01*
X127417286Y-112540143D02*
X127417286Y-113011857D01*
X127127000Y-112757857D01*
X127127000Y-112866715D01*
X127090714Y-112939286D01*
X127054429Y-112975572D01*
X126981857Y-113011857D01*
X126800429Y-113011857D01*
X126727857Y-112975572D01*
X126691571Y-112939286D01*
X126655286Y-112866715D01*
X126655286Y-112649000D01*
X126691571Y-112576429D01*
X126727857Y-112540143D01*
X127417286Y-113265857D02*
X127417286Y-113737571D01*
X127127000Y-113483571D01*
X127127000Y-113592429D01*
X127090714Y-113665000D01*
X127054429Y-113701286D01*
X126981857Y-113737571D01*
X126800429Y-113737571D01*
X126727857Y-113701286D01*
X126691571Y-113665000D01*
X126655286Y-113592429D01*
X126655286Y-113374714D01*
X126691571Y-113302143D01*
X126727857Y-113265857D01*
X124955905Y-106123619D02*
X124955905Y-106946095D01*
X125004286Y-107042857D01*
X125052667Y-107091238D01*
X125149429Y-107139619D01*
X125342952Y-107139619D01*
X125439714Y-107091238D01*
X125488095Y-107042857D01*
X125536476Y-106946095D01*
X125536476Y-106123619D01*
X126552476Y-107139619D02*
X125971905Y-107139619D01*
X126262191Y-107139619D02*
X126262191Y-106123619D01*
X126165429Y-106268762D01*
X126068667Y-106365524D01*
X125971905Y-106413905D01*
X125560667Y-93707857D02*
X125512286Y-93756238D01*
X125367143Y-93804619D01*
X125270381Y-93804619D01*
X125125239Y-93756238D01*
X125028477Y-93659476D01*
X124980096Y-93562714D01*
X124931715Y-93369190D01*
X124931715Y-93224048D01*
X124980096Y-93030524D01*
X125028477Y-92933762D01*
X125125239Y-92837000D01*
X125270381Y-92788619D01*
X125367143Y-92788619D01*
X125512286Y-92837000D01*
X125560667Y-92885381D01*
X126528286Y-93804619D02*
X125947715Y-93804619D01*
X126238001Y-93804619D02*
X126238001Y-92788619D01*
X126141239Y-92933762D01*
X126044477Y-93030524D01*
X125947715Y-93078905D01*
X125560667Y-102694619D02*
X125222001Y-102210810D01*
X124980096Y-102694619D02*
X124980096Y-101678619D01*
X125367143Y-101678619D01*
X125463905Y-101727000D01*
X125512286Y-101775381D01*
X125560667Y-101872143D01*
X125560667Y-102017286D01*
X125512286Y-102114048D01*
X125463905Y-102162429D01*
X125367143Y-102210810D01*
X124980096Y-102210810D01*
X125947715Y-101775381D02*
X125996096Y-101727000D01*
X126092858Y-101678619D01*
X126334762Y-101678619D01*
X126431524Y-101727000D01*
X126479905Y-101775381D01*
X126528286Y-101872143D01*
X126528286Y-101968905D01*
X126479905Y-102114048D01*
X125899334Y-102694619D01*
X126528286Y-102694619D01*
X120492762Y-94838764D02*
X120444381Y-94983907D01*
X120444381Y-95225811D01*
X120492762Y-95322573D01*
X120541143Y-95370954D01*
X120637905Y-95419335D01*
X120734667Y-95419335D01*
X120831429Y-95370954D01*
X120879810Y-95322573D01*
X120928190Y-95225811D01*
X120976571Y-95032288D01*
X121024952Y-94935526D01*
X121073333Y-94887145D01*
X121170095Y-94838764D01*
X121266857Y-94838764D01*
X121363619Y-94887145D01*
X121412000Y-94935526D01*
X121460381Y-95032288D01*
X121460381Y-95274192D01*
X121412000Y-95419335D01*
X120444381Y-95999907D02*
X120492762Y-95903145D01*
X120589524Y-95854764D01*
X121460381Y-95854764D01*
X120444381Y-96532097D02*
X120492762Y-96435335D01*
X120541143Y-96386954D01*
X120637905Y-96338573D01*
X120928190Y-96338573D01*
X121024952Y-96386954D01*
X121073333Y-96435335D01*
X121121714Y-96532097D01*
X121121714Y-96677239D01*
X121073333Y-96774001D01*
X121024952Y-96822382D01*
X120928190Y-96870763D01*
X120637905Y-96870763D01*
X120541143Y-96822382D01*
X120492762Y-96774001D01*
X120444381Y-96677239D01*
X120444381Y-96532097D01*
X121121714Y-97161049D02*
X121121714Y-97548097D01*
X121460381Y-97306192D02*
X120589524Y-97306192D01*
X120492762Y-97354573D01*
X120444381Y-97451335D01*
X120444381Y-97548097D01*
X121024952Y-98806001D02*
X121073333Y-98709239D01*
X121121714Y-98660858D01*
X121218476Y-98612477D01*
X121266857Y-98612477D01*
X121363619Y-98660858D01*
X121412000Y-98709239D01*
X121460381Y-98806001D01*
X121460381Y-98999524D01*
X121412000Y-99096286D01*
X121363619Y-99144667D01*
X121266857Y-99193048D01*
X121218476Y-99193048D01*
X121121714Y-99144667D01*
X121073333Y-99096286D01*
X121024952Y-98999524D01*
X121024952Y-98806001D01*
X120976571Y-98709239D01*
X120928190Y-98660858D01*
X120831429Y-98612477D01*
X120637905Y-98612477D01*
X120541143Y-98660858D01*
X120492762Y-98709239D01*
X120444381Y-98806001D01*
X120444381Y-98999524D01*
X120492762Y-99096286D01*
X120541143Y-99144667D01*
X120637905Y-99193048D01*
X120831429Y-99193048D01*
X120928190Y-99144667D01*
X120976571Y-99096286D01*
X121024952Y-98999524D01*
X120492762Y-100354191D02*
X120444381Y-100499334D01*
X120444381Y-100741238D01*
X120492762Y-100838000D01*
X120541143Y-100886381D01*
X120637905Y-100934762D01*
X120734667Y-100934762D01*
X120831429Y-100886381D01*
X120879810Y-100838000D01*
X120928190Y-100741238D01*
X120976571Y-100547715D01*
X121024952Y-100450953D01*
X121073333Y-100402572D01*
X121170095Y-100354191D01*
X121266857Y-100354191D01*
X121363619Y-100402572D01*
X121412000Y-100450953D01*
X121460381Y-100547715D01*
X121460381Y-100789619D01*
X121412000Y-100934762D01*
X121121714Y-101805619D02*
X120444381Y-101805619D01*
X121121714Y-101370191D02*
X120589524Y-101370191D01*
X120492762Y-101418572D01*
X120444381Y-101515334D01*
X120444381Y-101660476D01*
X120492762Y-101757238D01*
X120541143Y-101805619D01*
X121121714Y-102289429D02*
X120105714Y-102289429D01*
X121073333Y-102289429D02*
X121121714Y-102386191D01*
X121121714Y-102579714D01*
X121073333Y-102676476D01*
X121024952Y-102724857D01*
X120928190Y-102773238D01*
X120637905Y-102773238D01*
X120541143Y-102724857D01*
X120492762Y-102676476D01*
X120444381Y-102579714D01*
X120444381Y-102386191D01*
X120492762Y-102289429D01*
X121121714Y-103208667D02*
X120105714Y-103208667D01*
X121073333Y-103208667D02*
X121121714Y-103305429D01*
X121121714Y-103498952D01*
X121073333Y-103595714D01*
X121024952Y-103644095D01*
X120928190Y-103692476D01*
X120637905Y-103692476D01*
X120541143Y-103644095D01*
X120492762Y-103595714D01*
X120444381Y-103498952D01*
X120444381Y-103305429D01*
X120492762Y-103208667D01*
X120444381Y-104273048D02*
X120492762Y-104176286D01*
X120541143Y-104127905D01*
X120637905Y-104079524D01*
X120928190Y-104079524D01*
X121024952Y-104127905D01*
X121073333Y-104176286D01*
X121121714Y-104273048D01*
X121121714Y-104418190D01*
X121073333Y-104514952D01*
X121024952Y-104563333D01*
X120928190Y-104611714D01*
X120637905Y-104611714D01*
X120541143Y-104563333D01*
X120492762Y-104514952D01*
X120444381Y-104418190D01*
X120444381Y-104273048D01*
X120444381Y-105047143D02*
X121121714Y-105047143D01*
X120928190Y-105047143D02*
X121024952Y-105095524D01*
X121073333Y-105143905D01*
X121121714Y-105240667D01*
X121121714Y-105337428D01*
X121121714Y-105530952D02*
X121121714Y-105918000D01*
X121460381Y-105676095D02*
X120589524Y-105676095D01*
X120492762Y-105724476D01*
X120444381Y-105821238D01*
X120444381Y-105918000D01*
X130773714Y-92032667D02*
X130096381Y-92226191D01*
X130580190Y-92419714D01*
X130096381Y-92613238D01*
X130773714Y-92806762D01*
X130773714Y-93097048D02*
X130096381Y-93290572D01*
X130580190Y-93484095D01*
X130096381Y-93677619D01*
X130773714Y-93871143D01*
X130773714Y-94161429D02*
X130096381Y-94354953D01*
X130580190Y-94548476D01*
X130096381Y-94742000D01*
X130773714Y-94935524D01*
X130193143Y-95322572D02*
X130144762Y-95370953D01*
X130096381Y-95322572D01*
X130144762Y-95274191D01*
X130193143Y-95322572D01*
X130096381Y-95322572D01*
X130773714Y-96241810D02*
X129951238Y-96241810D01*
X129854476Y-96193429D01*
X129806095Y-96145048D01*
X129757714Y-96048287D01*
X129757714Y-95903144D01*
X129806095Y-95806382D01*
X130144762Y-96241810D02*
X130096381Y-96145048D01*
X130096381Y-95951525D01*
X130144762Y-95854763D01*
X130193143Y-95806382D01*
X130289905Y-95758001D01*
X130580190Y-95758001D01*
X130676952Y-95806382D01*
X130725333Y-95854763D01*
X130773714Y-95951525D01*
X130773714Y-96145048D01*
X130725333Y-96241810D01*
X130096381Y-96870763D02*
X130144762Y-96774001D01*
X130241524Y-96725620D01*
X131112381Y-96725620D01*
X130096381Y-97257810D02*
X130773714Y-97257810D01*
X131112381Y-97257810D02*
X131064000Y-97209429D01*
X131015619Y-97257810D01*
X131064000Y-97306191D01*
X131112381Y-97257810D01*
X131015619Y-97257810D01*
X130773714Y-97596477D02*
X130773714Y-97983525D01*
X131112381Y-97741620D02*
X130241524Y-97741620D01*
X130144762Y-97790001D01*
X130096381Y-97886763D01*
X130096381Y-97983525D01*
X130144762Y-98757619D02*
X130096381Y-98660857D01*
X130096381Y-98467334D01*
X130144762Y-98370572D01*
X130193143Y-98322191D01*
X130289905Y-98273810D01*
X130580190Y-98273810D01*
X130676952Y-98322191D01*
X130725333Y-98370572D01*
X130773714Y-98467334D01*
X130773714Y-98660857D01*
X130725333Y-98757619D01*
X130096381Y-99193048D02*
X131112381Y-99193048D01*
X130096381Y-99628476D02*
X130628571Y-99628476D01*
X130725333Y-99580095D01*
X130773714Y-99483333D01*
X130773714Y-99338191D01*
X130725333Y-99241429D01*
X130676952Y-99193048D01*
X130773714Y-100015524D02*
X130096381Y-100209048D01*
X130580190Y-100402571D01*
X130096381Y-100596095D01*
X130773714Y-100789619D01*
X130096381Y-101176667D02*
X130773714Y-101176667D01*
X130580190Y-101176667D02*
X130676952Y-101225048D01*
X130725333Y-101273429D01*
X130773714Y-101370191D01*
X130773714Y-101466952D01*
X130096381Y-101805619D02*
X131112381Y-101805619D01*
X130483429Y-101902381D02*
X130096381Y-102192666D01*
X130773714Y-102192666D02*
X130386667Y-101805619D01*
X130144762Y-102579714D02*
X130096381Y-102676476D01*
X130096381Y-102870000D01*
X130144762Y-102966761D01*
X130241524Y-103015142D01*
X130289905Y-103015142D01*
X130386667Y-102966761D01*
X130435048Y-102870000D01*
X130435048Y-102724857D01*
X130483429Y-102628095D01*
X130580190Y-102579714D01*
X130628571Y-102579714D01*
X130725333Y-102628095D01*
X130773714Y-102724857D01*
X130773714Y-102870000D01*
X130725333Y-102966761D01*
X130193143Y-103450571D02*
X130144762Y-103498952D01*
X130096381Y-103450571D01*
X130144762Y-103402190D01*
X130193143Y-103450571D01*
X130096381Y-103450571D01*
X130144762Y-104369809D02*
X130096381Y-104273047D01*
X130096381Y-104079524D01*
X130144762Y-103982762D01*
X130193143Y-103934381D01*
X130289905Y-103886000D01*
X130580190Y-103886000D01*
X130676952Y-103934381D01*
X130725333Y-103982762D01*
X130773714Y-104079524D01*
X130773714Y-104273047D01*
X130725333Y-104369809D01*
X130096381Y-104950381D02*
X130144762Y-104853619D01*
X130193143Y-104805238D01*
X130289905Y-104756857D01*
X130580190Y-104756857D01*
X130676952Y-104805238D01*
X130725333Y-104853619D01*
X130773714Y-104950381D01*
X130773714Y-105095523D01*
X130725333Y-105192285D01*
X130676952Y-105240666D01*
X130580190Y-105289047D01*
X130289905Y-105289047D01*
X130193143Y-105240666D01*
X130144762Y-105192285D01*
X130096381Y-105095523D01*
X130096381Y-104950381D01*
X130096381Y-105724476D02*
X130773714Y-105724476D01*
X130676952Y-105724476D02*
X130725333Y-105772857D01*
X130773714Y-105869619D01*
X130773714Y-106014761D01*
X130725333Y-106111523D01*
X130628571Y-106159904D01*
X130096381Y-106159904D01*
X130628571Y-106159904D02*
X130725333Y-106208285D01*
X130773714Y-106305047D01*
X130773714Y-106450190D01*
X130725333Y-106546952D01*
X130628571Y-106595333D01*
X130096381Y-106595333D01*
X131160762Y-107804857D02*
X129854476Y-106934000D01*
X130096381Y-108046762D02*
X130773714Y-108578952D01*
X130773714Y-108046762D02*
X130096381Y-108578952D01*
X130773714Y-108820857D02*
X130773714Y-109207905D01*
X131112381Y-108966000D02*
X130241524Y-108966000D01*
X130144762Y-109014381D01*
X130096381Y-109111143D01*
X130096381Y-109207905D01*
X130483429Y-109546571D02*
X130483429Y-110320666D01*
X130096381Y-110804476D02*
X130773714Y-110804476D01*
X131112381Y-110804476D02*
X131064000Y-110756095D01*
X131015619Y-110804476D01*
X131064000Y-110852857D01*
X131112381Y-110804476D01*
X131015619Y-110804476D01*
X130096381Y-111723714D02*
X131112381Y-111723714D01*
X130144762Y-111723714D02*
X130096381Y-111626952D01*
X130096381Y-111433429D01*
X130144762Y-111336667D01*
X130193143Y-111288286D01*
X130289905Y-111239905D01*
X130580190Y-111239905D01*
X130676952Y-111288286D01*
X130725333Y-111336667D01*
X130773714Y-111433429D01*
X130773714Y-111626952D01*
X130725333Y-111723714D01*
X130144762Y-112594571D02*
X130096381Y-112497809D01*
X130096381Y-112304286D01*
X130144762Y-112207524D01*
X130241524Y-112159143D01*
X130628571Y-112159143D01*
X130725333Y-112207524D01*
X130773714Y-112304286D01*
X130773714Y-112497809D01*
X130725333Y-112594571D01*
X130628571Y-112642952D01*
X130531810Y-112642952D01*
X130435048Y-112159143D01*
D12*
X127730000Y-95250000D03*
X123730000Y-95250000D03*
D13*
X127730000Y-99695000D03*
X123730000Y-99695000D03*
X127730000Y-104140000D03*
X123730000Y-104140000D03*
D14*
X122428000Y-108585000D03*
X122428000Y-109855000D03*
X122428000Y-111125000D03*
X122428000Y-112395000D03*
X122428000Y-113665000D03*
X122428000Y-114935000D03*
X122428000Y-116205000D03*
X128778000Y-116205000D03*
X128778000Y-114935000D03*
X128778000Y-112395000D03*
X128778000Y-111125000D03*
X128778000Y-109855000D03*
X128778000Y-108585000D03*
X128778000Y-113665000D03*
D15*
X118110000Y-92710000D03*
X133350000Y-125730000D03*
D16*
X127508000Y-119888000D03*
X122428000Y-124714000D03*
X127508000Y-124714000D03*
D15*
X118110000Y-113030000D03*
X118110000Y-107950000D03*
M02*
