G04 #@! TF.FileFunction,Legend,Top*
%FSLAX46Y46*%
G04 Gerber Fmt 4.6, Leading zero omitted, Abs format (unit mm)*
G04 Created by KiCad (PCBNEW 4.0.0-stable) date Wed 14 Sep 2016 03:31:36 PM EDT*
%MOMM*%
G01*
G04 APERTURE LIST*
%ADD10C,0.100000*%
%ADD11C,0.177800*%
%ADD12C,0.150000*%
G04 APERTURE END LIST*
D10*
D11*
X121315238Y-106329236D02*
X121363619Y-106184093D01*
X121363619Y-105942189D01*
X121315238Y-105845427D01*
X121266857Y-105797046D01*
X121170095Y-105748665D01*
X121073333Y-105748665D01*
X120976571Y-105797046D01*
X120928190Y-105845427D01*
X120879810Y-105942189D01*
X120831429Y-106135712D01*
X120783048Y-106232474D01*
X120734667Y-106280855D01*
X120637905Y-106329236D01*
X120541143Y-106329236D01*
X120444381Y-106280855D01*
X120396000Y-106232474D01*
X120347619Y-106135712D01*
X120347619Y-105893808D01*
X120396000Y-105748665D01*
X121363619Y-105168093D02*
X121315238Y-105264855D01*
X121218476Y-105313236D01*
X120347619Y-105313236D01*
X121363619Y-104635903D02*
X121315238Y-104732665D01*
X121266857Y-104781046D01*
X121170095Y-104829427D01*
X120879810Y-104829427D01*
X120783048Y-104781046D01*
X120734667Y-104732665D01*
X120686286Y-104635903D01*
X120686286Y-104490761D01*
X120734667Y-104393999D01*
X120783048Y-104345618D01*
X120879810Y-104297237D01*
X121170095Y-104297237D01*
X121266857Y-104345618D01*
X121315238Y-104393999D01*
X121363619Y-104490761D01*
X121363619Y-104635903D01*
X120686286Y-104006951D02*
X120686286Y-103619903D01*
X120347619Y-103861808D02*
X121218476Y-103861808D01*
X121315238Y-103813427D01*
X121363619Y-103716665D01*
X121363619Y-103619903D01*
X120783048Y-102361999D02*
X120734667Y-102458761D01*
X120686286Y-102507142D01*
X120589524Y-102555523D01*
X120541143Y-102555523D01*
X120444381Y-102507142D01*
X120396000Y-102458761D01*
X120347619Y-102361999D01*
X120347619Y-102168476D01*
X120396000Y-102071714D01*
X120444381Y-102023333D01*
X120541143Y-101974952D01*
X120589524Y-101974952D01*
X120686286Y-102023333D01*
X120734667Y-102071714D01*
X120783048Y-102168476D01*
X120783048Y-102361999D01*
X120831429Y-102458761D01*
X120879810Y-102507142D01*
X120976571Y-102555523D01*
X121170095Y-102555523D01*
X121266857Y-102507142D01*
X121315238Y-102458761D01*
X121363619Y-102361999D01*
X121363619Y-102168476D01*
X121315238Y-102071714D01*
X121266857Y-102023333D01*
X121170095Y-101974952D01*
X120976571Y-101974952D01*
X120879810Y-102023333D01*
X120831429Y-102071714D01*
X120783048Y-102168476D01*
X121315238Y-100813809D02*
X121363619Y-100668666D01*
X121363619Y-100426762D01*
X121315238Y-100330000D01*
X121266857Y-100281619D01*
X121170095Y-100233238D01*
X121073333Y-100233238D01*
X120976571Y-100281619D01*
X120928190Y-100330000D01*
X120879810Y-100426762D01*
X120831429Y-100620285D01*
X120783048Y-100717047D01*
X120734667Y-100765428D01*
X120637905Y-100813809D01*
X120541143Y-100813809D01*
X120444381Y-100765428D01*
X120396000Y-100717047D01*
X120347619Y-100620285D01*
X120347619Y-100378381D01*
X120396000Y-100233238D01*
X120686286Y-99362381D02*
X121363619Y-99362381D01*
X120686286Y-99797809D02*
X121218476Y-99797809D01*
X121315238Y-99749428D01*
X121363619Y-99652666D01*
X121363619Y-99507524D01*
X121315238Y-99410762D01*
X121266857Y-99362381D01*
X120686286Y-98878571D02*
X121702286Y-98878571D01*
X120734667Y-98878571D02*
X120686286Y-98781809D01*
X120686286Y-98588286D01*
X120734667Y-98491524D01*
X120783048Y-98443143D01*
X120879810Y-98394762D01*
X121170095Y-98394762D01*
X121266857Y-98443143D01*
X121315238Y-98491524D01*
X121363619Y-98588286D01*
X121363619Y-98781809D01*
X121315238Y-98878571D01*
X120686286Y-97959333D02*
X121702286Y-97959333D01*
X120734667Y-97959333D02*
X120686286Y-97862571D01*
X120686286Y-97669048D01*
X120734667Y-97572286D01*
X120783048Y-97523905D01*
X120879810Y-97475524D01*
X121170095Y-97475524D01*
X121266857Y-97523905D01*
X121315238Y-97572286D01*
X121363619Y-97669048D01*
X121363619Y-97862571D01*
X121315238Y-97959333D01*
X121363619Y-96894952D02*
X121315238Y-96991714D01*
X121266857Y-97040095D01*
X121170095Y-97088476D01*
X120879810Y-97088476D01*
X120783048Y-97040095D01*
X120734667Y-96991714D01*
X120686286Y-96894952D01*
X120686286Y-96749810D01*
X120734667Y-96653048D01*
X120783048Y-96604667D01*
X120879810Y-96556286D01*
X121170095Y-96556286D01*
X121266857Y-96604667D01*
X121315238Y-96653048D01*
X121363619Y-96749810D01*
X121363619Y-96894952D01*
X121363619Y-96120857D02*
X120686286Y-96120857D01*
X120879810Y-96120857D02*
X120783048Y-96072476D01*
X120734667Y-96024095D01*
X120686286Y-95927333D01*
X120686286Y-95830572D01*
X120686286Y-95637048D02*
X120686286Y-95250000D01*
X120347619Y-95491905D02*
X121218476Y-95491905D01*
X121315238Y-95443524D01*
X121363619Y-95346762D01*
X121363619Y-95250000D01*
X131015619Y-122766666D02*
X129999619Y-122766666D01*
X131015619Y-122331238D02*
X130483429Y-122331238D01*
X130386667Y-122379619D01*
X130338286Y-122476381D01*
X130338286Y-122621523D01*
X130386667Y-122718285D01*
X130435048Y-122766666D01*
X130338286Y-121992571D02*
X130338286Y-121605523D01*
X129999619Y-121847428D02*
X130870476Y-121847428D01*
X130967238Y-121799047D01*
X131015619Y-121702285D01*
X131015619Y-121605523D01*
X130338286Y-121412000D02*
X130338286Y-121024952D01*
X129999619Y-121266857D02*
X130870476Y-121266857D01*
X130967238Y-121218476D01*
X131015619Y-121121714D01*
X131015619Y-121024952D01*
X130338286Y-120686286D02*
X131354286Y-120686286D01*
X130386667Y-120686286D02*
X130338286Y-120589524D01*
X130338286Y-120396001D01*
X130386667Y-120299239D01*
X130435048Y-120250858D01*
X130531810Y-120202477D01*
X130822095Y-120202477D01*
X130918857Y-120250858D01*
X130967238Y-120299239D01*
X131015619Y-120396001D01*
X131015619Y-120589524D01*
X130967238Y-120686286D01*
X130918857Y-119767048D02*
X130967238Y-119718667D01*
X131015619Y-119767048D01*
X130967238Y-119815429D01*
X130918857Y-119767048D01*
X131015619Y-119767048D01*
X130386667Y-119767048D02*
X130435048Y-119718667D01*
X130483429Y-119767048D01*
X130435048Y-119815429D01*
X130386667Y-119767048D01*
X130483429Y-119767048D01*
X129951238Y-118557524D02*
X131257524Y-119428381D01*
X129951238Y-117493143D02*
X131257524Y-118364000D01*
X130338286Y-117251238D02*
X131015619Y-117057714D01*
X130531810Y-116864191D01*
X131015619Y-116670667D01*
X130338286Y-116477143D01*
X130338286Y-116186857D02*
X131015619Y-115993333D01*
X130531810Y-115799810D01*
X131015619Y-115606286D01*
X130338286Y-115412762D01*
X130338286Y-115122476D02*
X131015619Y-114928952D01*
X130531810Y-114735429D01*
X131015619Y-114541905D01*
X130338286Y-114348381D01*
X130918857Y-113961333D02*
X130967238Y-113912952D01*
X131015619Y-113961333D01*
X130967238Y-114009714D01*
X130918857Y-113961333D01*
X131015619Y-113961333D01*
X130338286Y-113042095D02*
X131160762Y-113042095D01*
X131257524Y-113090476D01*
X131305905Y-113138857D01*
X131354286Y-113235618D01*
X131354286Y-113380761D01*
X131305905Y-113477523D01*
X130967238Y-113042095D02*
X131015619Y-113138857D01*
X131015619Y-113332380D01*
X130967238Y-113429142D01*
X130918857Y-113477523D01*
X130822095Y-113525904D01*
X130531810Y-113525904D01*
X130435048Y-113477523D01*
X130386667Y-113429142D01*
X130338286Y-113332380D01*
X130338286Y-113138857D01*
X130386667Y-113042095D01*
X131015619Y-112413142D02*
X130967238Y-112509904D01*
X130870476Y-112558285D01*
X129999619Y-112558285D01*
X131015619Y-112026095D02*
X130338286Y-112026095D01*
X129999619Y-112026095D02*
X130048000Y-112074476D01*
X130096381Y-112026095D01*
X130048000Y-111977714D01*
X129999619Y-112026095D01*
X130096381Y-112026095D01*
X130338286Y-111687428D02*
X130338286Y-111300380D01*
X129999619Y-111542285D02*
X130870476Y-111542285D01*
X130967238Y-111493904D01*
X131015619Y-111397142D01*
X131015619Y-111300380D01*
X130967238Y-110526286D02*
X131015619Y-110623048D01*
X131015619Y-110816571D01*
X130967238Y-110913333D01*
X130918857Y-110961714D01*
X130822095Y-111010095D01*
X130531810Y-111010095D01*
X130435048Y-110961714D01*
X130386667Y-110913333D01*
X130338286Y-110816571D01*
X130338286Y-110623048D01*
X130386667Y-110526286D01*
X131015619Y-110090857D02*
X129999619Y-110090857D01*
X131015619Y-109655429D02*
X130483429Y-109655429D01*
X130386667Y-109703810D01*
X130338286Y-109800572D01*
X130338286Y-109945714D01*
X130386667Y-110042476D01*
X130435048Y-110090857D01*
X130338286Y-109268381D02*
X131015619Y-109074857D01*
X130531810Y-108881334D01*
X131015619Y-108687810D01*
X130338286Y-108494286D01*
X131015619Y-108107238D02*
X130338286Y-108107238D01*
X130531810Y-108107238D02*
X130435048Y-108058857D01*
X130386667Y-108010476D01*
X130338286Y-107913714D01*
X130338286Y-107816953D01*
X131015619Y-107478286D02*
X129999619Y-107478286D01*
X130628571Y-107381524D02*
X131015619Y-107091239D01*
X130338286Y-107091239D02*
X130725333Y-107478286D01*
X130967238Y-106704191D02*
X131015619Y-106607429D01*
X131015619Y-106413905D01*
X130967238Y-106317144D01*
X130870476Y-106268763D01*
X130822095Y-106268763D01*
X130725333Y-106317144D01*
X130676952Y-106413905D01*
X130676952Y-106559048D01*
X130628571Y-106655810D01*
X130531810Y-106704191D01*
X130483429Y-106704191D01*
X130386667Y-106655810D01*
X130338286Y-106559048D01*
X130338286Y-106413905D01*
X130386667Y-106317144D01*
X130918857Y-105833334D02*
X130967238Y-105784953D01*
X131015619Y-105833334D01*
X130967238Y-105881715D01*
X130918857Y-105833334D01*
X131015619Y-105833334D01*
X130967238Y-104914096D02*
X131015619Y-105010858D01*
X131015619Y-105204381D01*
X130967238Y-105301143D01*
X130918857Y-105349524D01*
X130822095Y-105397905D01*
X130531810Y-105397905D01*
X130435048Y-105349524D01*
X130386667Y-105301143D01*
X130338286Y-105204381D01*
X130338286Y-105010858D01*
X130386667Y-104914096D01*
X131015619Y-104333524D02*
X130967238Y-104430286D01*
X130918857Y-104478667D01*
X130822095Y-104527048D01*
X130531810Y-104527048D01*
X130435048Y-104478667D01*
X130386667Y-104430286D01*
X130338286Y-104333524D01*
X130338286Y-104188382D01*
X130386667Y-104091620D01*
X130435048Y-104043239D01*
X130531810Y-103994858D01*
X130822095Y-103994858D01*
X130918857Y-104043239D01*
X130967238Y-104091620D01*
X131015619Y-104188382D01*
X131015619Y-104333524D01*
X131015619Y-103559429D02*
X130338286Y-103559429D01*
X130435048Y-103559429D02*
X130386667Y-103511048D01*
X130338286Y-103414286D01*
X130338286Y-103269144D01*
X130386667Y-103172382D01*
X130483429Y-103124001D01*
X131015619Y-103124001D01*
X130483429Y-103124001D02*
X130386667Y-103075620D01*
X130338286Y-102978858D01*
X130338286Y-102833715D01*
X130386667Y-102736953D01*
X130483429Y-102688572D01*
X131015619Y-102688572D01*
X129951238Y-101479048D02*
X131257524Y-102349905D01*
X131015619Y-101237143D02*
X130338286Y-100704953D01*
X130338286Y-101237143D02*
X131015619Y-100704953D01*
X130338286Y-100463048D02*
X130338286Y-100076000D01*
X129999619Y-100317905D02*
X130870476Y-100317905D01*
X130967238Y-100269524D01*
X131015619Y-100172762D01*
X131015619Y-100076000D01*
X130628571Y-99737334D02*
X130628571Y-98963239D01*
X131015619Y-98479429D02*
X130338286Y-98479429D01*
X129999619Y-98479429D02*
X130048000Y-98527810D01*
X130096381Y-98479429D01*
X130048000Y-98431048D01*
X129999619Y-98479429D01*
X130096381Y-98479429D01*
X131015619Y-97560191D02*
X129999619Y-97560191D01*
X130967238Y-97560191D02*
X131015619Y-97656953D01*
X131015619Y-97850476D01*
X130967238Y-97947238D01*
X130918857Y-97995619D01*
X130822095Y-98044000D01*
X130531810Y-98044000D01*
X130435048Y-97995619D01*
X130386667Y-97947238D01*
X130338286Y-97850476D01*
X130338286Y-97656953D01*
X130386667Y-97560191D01*
X130967238Y-96689334D02*
X131015619Y-96786096D01*
X131015619Y-96979619D01*
X130967238Y-97076381D01*
X130870476Y-97124762D01*
X130483429Y-97124762D01*
X130386667Y-97076381D01*
X130338286Y-96979619D01*
X130338286Y-96786096D01*
X130386667Y-96689334D01*
X130483429Y-96640953D01*
X130580190Y-96640953D01*
X130676952Y-97124762D01*
D12*
X126730000Y-94225000D02*
X124730000Y-94225000D01*
X124730000Y-96275000D02*
X126730000Y-96275000D01*
X124730000Y-98620000D02*
X126730000Y-98620000D01*
X126730000Y-100770000D02*
X124730000Y-100770000D01*
X124730000Y-103065000D02*
X126730000Y-103065000D01*
X126730000Y-105215000D02*
X124730000Y-105215000D01*
X128016000Y-117475000D02*
X123190000Y-117475000D01*
X123190000Y-117475000D02*
X123190000Y-107315000D01*
X123190000Y-107315000D02*
X128016000Y-107315000D01*
X128016000Y-107315000D02*
X128016000Y-117475000D01*
X126238000Y-107315000D02*
X126238000Y-107950000D01*
X126238000Y-107950000D02*
X124968000Y-107950000D01*
X124968000Y-107950000D02*
X124968000Y-107315000D01*
X123023334Y-93702143D02*
X122975715Y-93749762D01*
X122832858Y-93797381D01*
X122737620Y-93797381D01*
X122594762Y-93749762D01*
X122499524Y-93654524D01*
X122451905Y-93559286D01*
X122404286Y-93368810D01*
X122404286Y-93225952D01*
X122451905Y-93035476D01*
X122499524Y-92940238D01*
X122594762Y-92845000D01*
X122737620Y-92797381D01*
X122832858Y-92797381D01*
X122975715Y-92845000D01*
X123023334Y-92892619D01*
X123975715Y-93797381D02*
X123404286Y-93797381D01*
X123690000Y-93797381D02*
X123690000Y-92797381D01*
X123594762Y-92940238D01*
X123499524Y-93035476D01*
X123404286Y-93083095D01*
X125992143Y-92797381D02*
X126087382Y-92797381D01*
X126182620Y-92845000D01*
X126230239Y-92892619D01*
X126277858Y-92987857D01*
X126325477Y-93178333D01*
X126325477Y-93416429D01*
X126277858Y-93606905D01*
X126230239Y-93702143D01*
X126182620Y-93749762D01*
X126087382Y-93797381D01*
X125992143Y-93797381D01*
X125896905Y-93749762D01*
X125849286Y-93702143D01*
X125801667Y-93606905D01*
X125754048Y-93416429D01*
X125754048Y-93178333D01*
X125801667Y-92987857D01*
X125849286Y-92892619D01*
X125896905Y-92845000D01*
X125992143Y-92797381D01*
X126754048Y-93702143D02*
X126801667Y-93749762D01*
X126754048Y-93797381D01*
X126706429Y-93749762D01*
X126754048Y-93702143D01*
X126754048Y-93797381D01*
X127754048Y-93797381D02*
X127182619Y-93797381D01*
X127468333Y-93797381D02*
X127468333Y-92797381D01*
X127373095Y-92940238D01*
X127277857Y-93035476D01*
X127182619Y-93083095D01*
X128611191Y-93130714D02*
X128611191Y-93797381D01*
X128182619Y-93130714D02*
X128182619Y-93654524D01*
X128230238Y-93749762D01*
X128325476Y-93797381D01*
X128468334Y-93797381D01*
X128563572Y-93749762D01*
X128611191Y-93702143D01*
X129420715Y-93273571D02*
X129087381Y-93273571D01*
X129087381Y-93797381D02*
X129087381Y-92797381D01*
X129563572Y-92797381D01*
X123023334Y-98242381D02*
X122690000Y-97766190D01*
X122451905Y-98242381D02*
X122451905Y-97242381D01*
X122832858Y-97242381D01*
X122928096Y-97290000D01*
X122975715Y-97337619D01*
X123023334Y-97432857D01*
X123023334Y-97575714D01*
X122975715Y-97670952D01*
X122928096Y-97718571D01*
X122832858Y-97766190D01*
X122451905Y-97766190D01*
X123975715Y-98242381D02*
X123404286Y-98242381D01*
X123690000Y-98242381D02*
X123690000Y-97242381D01*
X123594762Y-97385238D01*
X123499524Y-97480476D01*
X123404286Y-97528095D01*
X127579524Y-98242381D02*
X127008095Y-98242381D01*
X127293809Y-98242381D02*
X127293809Y-97242381D01*
X127198571Y-97385238D01*
X127103333Y-97480476D01*
X127008095Y-97528095D01*
X128198571Y-97242381D02*
X128293810Y-97242381D01*
X128389048Y-97290000D01*
X128436667Y-97337619D01*
X128484286Y-97432857D01*
X128531905Y-97623333D01*
X128531905Y-97861429D01*
X128484286Y-98051905D01*
X128436667Y-98147143D01*
X128389048Y-98194762D01*
X128293810Y-98242381D01*
X128198571Y-98242381D01*
X128103333Y-98194762D01*
X128055714Y-98147143D01*
X128008095Y-98051905D01*
X127960476Y-97861429D01*
X127960476Y-97623333D01*
X128008095Y-97432857D01*
X128055714Y-97337619D01*
X128103333Y-97290000D01*
X128198571Y-97242381D01*
X128960476Y-98242381D02*
X128960476Y-97242381D01*
X129531905Y-98242381D02*
X129103333Y-97670952D01*
X129531905Y-97242381D02*
X128960476Y-97813810D01*
X123023334Y-102687381D02*
X122690000Y-102211190D01*
X122451905Y-102687381D02*
X122451905Y-101687381D01*
X122832858Y-101687381D01*
X122928096Y-101735000D01*
X122975715Y-101782619D01*
X123023334Y-101877857D01*
X123023334Y-102020714D01*
X122975715Y-102115952D01*
X122928096Y-102163571D01*
X122832858Y-102211190D01*
X122451905Y-102211190D01*
X123404286Y-101782619D02*
X123451905Y-101735000D01*
X123547143Y-101687381D01*
X123785239Y-101687381D01*
X123880477Y-101735000D01*
X123928096Y-101782619D01*
X123975715Y-101877857D01*
X123975715Y-101973095D01*
X123928096Y-102115952D01*
X123356667Y-102687381D01*
X123975715Y-102687381D01*
X127579524Y-102687381D02*
X127008095Y-102687381D01*
X127293809Y-102687381D02*
X127293809Y-101687381D01*
X127198571Y-101830238D01*
X127103333Y-101925476D01*
X127008095Y-101973095D01*
X128198571Y-101687381D02*
X128293810Y-101687381D01*
X128389048Y-101735000D01*
X128436667Y-101782619D01*
X128484286Y-101877857D01*
X128531905Y-102068333D01*
X128531905Y-102306429D01*
X128484286Y-102496905D01*
X128436667Y-102592143D01*
X128389048Y-102639762D01*
X128293810Y-102687381D01*
X128198571Y-102687381D01*
X128103333Y-102639762D01*
X128055714Y-102592143D01*
X128008095Y-102496905D01*
X127960476Y-102306429D01*
X127960476Y-102068333D01*
X128008095Y-101877857D01*
X128055714Y-101782619D01*
X128103333Y-101735000D01*
X128198571Y-101687381D01*
X128960476Y-102687381D02*
X128960476Y-101687381D01*
X129531905Y-102687381D02*
X129103333Y-102115952D01*
X129531905Y-101687381D02*
X128960476Y-102258810D01*
X123063095Y-106132381D02*
X123063095Y-106941905D01*
X123110714Y-107037143D01*
X123158333Y-107084762D01*
X123253571Y-107132381D01*
X123444048Y-107132381D01*
X123539286Y-107084762D01*
X123586905Y-107037143D01*
X123634524Y-106941905D01*
X123634524Y-106132381D01*
X124634524Y-107132381D02*
X124063095Y-107132381D01*
X124348809Y-107132381D02*
X124348809Y-106132381D01*
X124253571Y-106275238D01*
X124158333Y-106370476D01*
X124063095Y-106418095D01*
X125182381Y-115037857D02*
X125182381Y-114371190D01*
X126182381Y-114799762D01*
X125515714Y-113561666D02*
X126182381Y-113561666D01*
X125134762Y-113799762D02*
X125849048Y-114037857D01*
X125849048Y-113418809D01*
X126182381Y-112561666D02*
X126182381Y-113037857D01*
X125182381Y-113037857D01*
X126134762Y-112275952D02*
X126182381Y-112133095D01*
X126182381Y-111894999D01*
X126134762Y-111799761D01*
X126087143Y-111752142D01*
X125991905Y-111704523D01*
X125896667Y-111704523D01*
X125801429Y-111752142D01*
X125753810Y-111799761D01*
X125706190Y-111894999D01*
X125658571Y-112085476D01*
X125610952Y-112180714D01*
X125563333Y-112228333D01*
X125468095Y-112275952D01*
X125372857Y-112275952D01*
X125277619Y-112228333D01*
X125230000Y-112180714D01*
X125182381Y-112085476D01*
X125182381Y-111847380D01*
X125230000Y-111704523D01*
X125182381Y-111371190D02*
X125182381Y-110752142D01*
X125563333Y-111085476D01*
X125563333Y-110942618D01*
X125610952Y-110847380D01*
X125658571Y-110799761D01*
X125753810Y-110752142D01*
X125991905Y-110752142D01*
X126087143Y-110799761D01*
X126134762Y-110847380D01*
X126182381Y-110942618D01*
X126182381Y-111228333D01*
X126134762Y-111323571D01*
X126087143Y-111371190D01*
X125182381Y-110418809D02*
X125182381Y-109799761D01*
X125563333Y-110133095D01*
X125563333Y-109990237D01*
X125610952Y-109894999D01*
X125658571Y-109847380D01*
X125753810Y-109799761D01*
X125991905Y-109799761D01*
X126087143Y-109847380D01*
X126134762Y-109894999D01*
X126182381Y-109990237D01*
X126182381Y-110275952D01*
X126134762Y-110371190D01*
X126087143Y-110418809D01*
X123452095Y-118070381D02*
X124023524Y-118070381D01*
X123737809Y-119070381D02*
X123737809Y-118070381D01*
X124356857Y-119070381D02*
X124356857Y-118070381D01*
X124737810Y-118070381D01*
X124833048Y-118118000D01*
X124880667Y-118165619D01*
X124928286Y-118260857D01*
X124928286Y-118403714D01*
X124880667Y-118498952D01*
X124833048Y-118546571D01*
X124737810Y-118594190D01*
X124356857Y-118594190D01*
X125880667Y-119070381D02*
X125309238Y-119070381D01*
X125594952Y-119070381D02*
X125594952Y-118070381D01*
X125499714Y-118213238D01*
X125404476Y-118308476D01*
X125309238Y-118356095D01*
X121166095Y-122134381D02*
X121737524Y-122134381D01*
X121451809Y-123134381D02*
X121451809Y-122134381D01*
X122070857Y-123134381D02*
X122070857Y-122134381D01*
X122451810Y-122134381D01*
X122547048Y-122182000D01*
X122594667Y-122229619D01*
X122642286Y-122324857D01*
X122642286Y-122467714D01*
X122594667Y-122562952D01*
X122547048Y-122610571D01*
X122451810Y-122658190D01*
X122070857Y-122658190D01*
X123023238Y-122229619D02*
X123070857Y-122182000D01*
X123166095Y-122134381D01*
X123404191Y-122134381D01*
X123499429Y-122182000D01*
X123547048Y-122229619D01*
X123594667Y-122324857D01*
X123594667Y-122420095D01*
X123547048Y-122562952D01*
X122975619Y-123134381D01*
X123594667Y-123134381D01*
X126246095Y-122134381D02*
X126817524Y-122134381D01*
X126531809Y-123134381D02*
X126531809Y-122134381D01*
X127150857Y-123134381D02*
X127150857Y-122134381D01*
X127531810Y-122134381D01*
X127627048Y-122182000D01*
X127674667Y-122229619D01*
X127722286Y-122324857D01*
X127722286Y-122467714D01*
X127674667Y-122562952D01*
X127627048Y-122610571D01*
X127531810Y-122658190D01*
X127150857Y-122658190D01*
X128055619Y-122134381D02*
X128674667Y-122134381D01*
X128341333Y-122515333D01*
X128484191Y-122515333D01*
X128579429Y-122562952D01*
X128627048Y-122610571D01*
X128674667Y-122705810D01*
X128674667Y-122943905D01*
X128627048Y-123039143D01*
X128579429Y-123086762D01*
X128484191Y-123134381D01*
X128198476Y-123134381D01*
X128103238Y-123086762D01*
X128055619Y-123039143D01*
M02*
